<svg width="18" height="18" viewBox="0 0 18 18" fill="none" xmlns="http://www.w3.org/2000/svg">
<path fill-rule="evenodd" clip-rule="evenodd" d="M8.05094 0.488281C7.05767 0.488281 6.07413 0.68392 5.15646 1.06403C4.2388 1.44414 3.40499 2.00127 2.70264 2.70362C2.00029 3.40597 1.44316 4.23978 1.06305 5.15744C0.682944 6.0751 0.487305 7.05865 0.487305 8.05192C0.487305 9.04519 0.682944 10.0287 1.06305 10.9464C1.44316 11.8641 2.00029 12.6979 2.70264 13.4002C3.40499 14.1026 4.2388 14.6597 5.15646 15.0398C6.07413 15.4199 7.05767 15.6156 8.05094 15.6156C9.04421 15.6156 10.0278 15.4199 10.9454 15.0398C11.4909 14.8139 12.0067 14.5254 12.483 14.181L15.4638 17.1618C15.9324 17.6304 16.6922 17.6304 17.1608 17.1618C17.6295 16.6932 17.6295 15.9334 17.1608 15.4648L14.18 12.4839C14.5244 12.0077 14.8129 11.4919 15.0388 10.9464C15.4189 10.0287 15.6146 9.04519 15.6146 8.05192C15.6146 7.05865 15.4189 6.0751 15.0388 5.15744C14.6587 4.23978 14.1016 3.40597 13.3992 2.70362C12.6969 2.00127 11.8631 1.44414 10.9454 1.06403C10.0278 0.68392 9.04421 0.488281 8.05094 0.488281ZM6.0749 3.28134C6.70138 3.02184 7.37284 2.88828 8.05094 2.88828C8.72904 2.88828 9.4005 3.02184 10.027 3.28134C10.6535 3.54084 11.2227 3.92119 11.7022 4.40068C12.1817 4.88016 12.562 5.4494 12.8215 6.07588C13.081 6.70236 13.2146 7.37382 13.2146 8.05192C13.2146 8.73002 13.081 9.40147 12.8215 10.028C12.562 10.6544 12.1817 11.2237 11.7022 11.7032C11.2227 12.1826 10.6535 12.563 10.027 12.8225C9.4005 13.082 8.72904 13.2156 8.05094 13.2156C7.37284 13.2156 6.70138 13.082 6.0749 12.8225C5.44842 12.563 4.87919 12.1826 4.3997 11.7032C3.92021 11.2237 3.53986 10.6544 3.28036 10.028C3.02087 9.40147 2.8873 8.73002 2.8873 8.05192C2.8873 7.37382 3.02087 6.70236 3.28036 6.07588C3.53986 5.4494 3.92021 4.88016 4.3997 4.40068C4.87919 3.92119 5.44842 3.54084 6.0749 3.28134Z" fill="#99A1B1"/>
</svg>

