<svg width="18" height="18" viewBox="0 0 18 18" fill="none" xmlns="http://www.w3.org/2000/svg">
<path d="M9 0.675781C5.4825 0.675781 2.625 3.53328 2.625 7.05078C2.625 11.8883 8.3775 15.8033 8.625 15.9683C8.7375 16.0433 8.8725 16.0808 9 16.0808C9.1275 16.0808 9.2625 16.0433 9.375 15.9683C9.6225 15.8033 15.375 11.8808 15.375 7.05078C15.375 3.53328 12.5175 0.675781 9 0.675781ZM9 9.60078C7.5525 9.60078 6.375 8.42328 6.375 6.97578C6.375 5.52828 7.5525 4.35078 9 4.35078C10.4475 4.35078 11.625 5.52828 11.625 6.97578C11.625 8.42328 10.4475 9.60078 9 9.60078Z" fill="#0078FF"/>
<path d="M8.85002 16.3508C8.19752 16.3508 7.59002 16.4183 7.14002 16.5308C6.91502 16.5908 6.71252 16.6583 6.56252 16.7483C6.41252 16.8383 6.30002 16.9583 6.30002 17.1008C6.30002 17.2433 6.41252 17.3633 6.56252 17.4533C6.71252 17.5433 6.91502 17.6183 7.14002 17.6708C7.59002 17.7833 8.19752 17.8508 8.85002 17.8508C9.50252 17.8508 10.11 17.7833 10.56 17.6708C10.785 17.6108 10.9875 17.5433 11.1375 17.4533C11.2875 17.3633 11.4 17.2433 11.4 17.1008C11.4 16.9583 11.2875 16.8383 11.1375 16.7483C10.9875 16.6583 10.785 16.5833 10.56 16.5308C10.11 16.4183 9.50252 16.3508 8.85002 16.3508Z" fill="#0078FF"/>
</svg>

